<?xml version="1.0" standalone="no"?>
<!DOCTYPE svg PUBLIC "-//W3C//DTD SVG 20010904//EN"
 "http://www.w3.org/TR/2001/REC-SVG-20010904/DTD/svg10.dtd">
<svg version="1.0" xmlns="http://www.w3.org/2000/svg"
 width="1280.000000pt" height="1009.000000pt" viewBox="0 0 1280.000000 1009.000000"
 preserveAspectRatio="xMidYMid meet">
<g transform="translate(0.000000,1009.000000) scale(0.100000,-0.100000)"
fill="#000000" stroke="none">
<path d="M2635 10068 c-16 -12 -50 -40 -75 -63 -31 -30 -57 -44 -84 -48 -22
-4 -44 -11 -50 -17 -6 -7 -10 -42 -9 -83 2 -40 -3 -91 -9 -115 -25 -97 28
-117 153 -57 81 39 106 42 148 21 49 -26 149 -142 157 -182 16 -87 -40 -110
-119 -49 -25 19 -54 35 -65 35 -31 0 -57 -38 -53 -77 2 -22 67 -34 143 -28 66
6 76 5 107 -17 64 -44 93 -145 53 -181 -24 -22 -27 -21 -61 4 -60 44 -147 44
-170 0 -27 -49 8 -65 131 -62 83 2 89 1 114 -24 l27 -27 -6 -166 c-8 -228 -39
-365 -148 -639 -27 -67 -73 -166 -103 -220 -66 -118 -101 -220 -92 -268 8 -43
72 -102 122 -111 66 -12 103 5 156 71 62 77 140 235 173 350 57 200 74 480 39
670 -11 55 -18 122 -18 148 2 80 55 133 145 146 69 9 79 16 79 50 0 34 -28 61
-63 61 -20 0 -33 -10 -53 -40 -50 -76 -105 -91 -148 -39 -58 68 -21 137 114
213 78 44 96 70 64 93 -26 19 -88 16 -107 -4 -8 -10 -18 -30 -22 -45 -16 -64
-82 -89 -122 -45 -48 52 -55 102 -22 156 22 37 50 63 89 82 62 32 78 70 42
102 -41 37 -102 11 -102 -42 0 -40 -35 -81 -70 -81 -51 0 -118 102 -127 196
-10 100 34 154 127 154 92 0 114 33 62 92 -29 31 -29 31 -119 29 l-90 -2 -45
41 c-25 22 -50 40 -55 40 -4 0 -21 -10 -38 -22z"/>
<path d="M1685 9620 c-27 -11 -71 -60 -80 -88 -4 -13 2 -44 14 -77 29 -78 28
-156 -3 -192 -22 -25 -30 -28 -82 -26 -77 3 -118 -18 -152 -76 -21 -36 -27
-59 -27 -107 0 -58 3 -65 45 -120 70 -91 174 -163 375 -263 99 -49 214 -105
256 -124 119 -54 198 -140 199 -215 0 -32 -28 -82 -46 -82 -41 0 -184 93 -358
233 -193 155 -308 204 -463 194 -138 -8 -217 -63 -249 -176 -16 -53 -15 -158
1 -207 11 -35 -52 -86 -163 -133 -53 -23 -109 -49 -123 -59 -41 -26 -118 -116
-134 -156 -20 -47 -19 -147 2 -215 18 -58 60 -106 204 -236 30 -27 72 -76 92
-108 87 -135 158 -186 261 -187 130 0 283 65 536 230 222 144 325 195 435 214
93 16 122 33 111 62 -6 15 -16 16 -84 11 -42 -4 -99 -13 -127 -21 -27 -8 -121
-35 -208 -60 -105 -30 -167 -44 -185 -40 -98 23 -163 136 -116 202 8 12 45 37
82 55 54 27 70 41 90 77 21 41 23 52 17 128 l-7 82 34 34 c67 67 168 72 255
12 27 -18 68 -46 93 -63 58 -39 113 -57 155 -49 36 7 65 38 65 69 0 10 -44
102 -97 205 -194 375 -178 339 -178 411 0 133 87 196 194 141 64 -32 100 -85
163 -235 43 -102 47 -119 58 -232 10 -110 30 -173 54 -173 51 0 90 382 57 570
-40 225 -146 436 -297 586 -104 105 -112 108 -284 109 -160 1 -168 3 -237 66
-36 33 -49 39 -85 38 -24 0 -52 -4 -63 -9z"/>
<path d="M3853 9190 c-309 -55 -569 -394 -673 -876 -31 -143 -31 -146 7 -157
37 -11 63 3 63 35 0 29 49 95 126 169 141 135 359 249 475 249 59 0 103 -33
120 -90 38 -125 -70 -222 -494 -440 -200 -103 -264 -146 -244 -166 3 -4 50 8
104 25 261 82 444 100 639 65 251 -46 443 12 543 163 44 66 43 124 -4 220 -35
70 -36 72 -20 109 8 21 38 61 64 89 57 60 76 114 68 193 -11 104 -73 202 -161
252 -58 34 -100 37 -191 15 -116 -28 -139 -18 -198 86 -15 26 -34 50 -43 53
-31 12 -128 15 -181 6z"/>
<path d="M3560 7844 c-193 -24 -512 -116 -486 -141 2 -2 32 3 67 13 43 11 102
17 179 16 138 0 236 -23 357 -82 157 -77 164 -148 19 -192 -70 -22 -61 -67 25
-131 33 -25 74 -64 91 -86 73 -100 36 -221 -69 -221 -24 0 -60 7 -79 15 -20 8
-99 76 -178 153 -194 190 -312 269 -456 307 -48 13 -50 12 -50 -7 0 -19 64
-88 82 -88 4 0 48 -46 99 -102 153 -173 265 -357 385 -632 54 -123 95 -192
156 -258 l48 -53 -91 -12 c-50 -7 -120 -21 -156 -32 -53 -16 -65 -17 -70 -6
-2 8 -2 18 1 23 3 5 10 43 16 83 11 79 1 190 -27 289 -20 72 -90 204 -161 305
-64 90 -362 395 -386 395 -12 0 -16 -10 -16 -37 0 -43 25 -103 68 -166 46 -65
88 -140 94 -165 24 -92 -109 -197 -167 -132 -49 54 -75 7 -75 -133 0 -137 -19
-176 -107 -221 -111 -56 -253 57 -253 203 0 18 16 68 35 111 64 141 57 171
-26 125 -142 -77 -267 -15 -256 126 10 118 102 231 245 301 98 47 119 75 84
110 -15 16 -37 23 -80 26 -49 3 -78 -3 -182 -37 -141 -48 -197 -75 -297 -142
-147 -99 -273 -242 -356 -403 -40 -78 -42 -84 -42 -176 0 -83 3 -102 28 -154
61 -131 174 -224 309 -257 141 -33 186 -49 217 -75 33 -27 69 -110 55 -124
-15 -14 -128 -40 -175 -40 -45 0 -86 20 -153 74 -49 39 -99 55 -173 56 -117 0
-230 -65 -290 -168 -29 -49 -34 -104 -18 -207 9 -62 -5 -99 -67 -175 -70 -87
-86 -114 -99 -162 -11 -40 -10 -53 10 -116 69 -215 267 -419 526 -542 192 -91
519 -170 556 -133 22 22 -5 56 -121 148 -128 102 -125 99 -207 230 -117 188
-145 283 -109 369 20 48 51 66 115 66 102 0 186 -65 268 -205 22 -39 52 -90
66 -115 15 -25 60 -114 101 -197 77 -157 110 -203 146 -203 25 0 25 2 -4 86
-35 105 -64 237 -76 355 -10 92 -9 127 9 268 12 89 21 180 21 201 0 21 3 41 8
44 4 2 32 -2 62 -10 30 -8 74 -14 97 -14 28 0 46 -5 49 -14 3 -8 -6 -52 -21
-98 -79 -249 -67 -541 35 -858 54 -169 84 -180 50 -20 -11 56 -18 110 -16 119
3 9 12 64 21 123 32 216 96 335 192 354 27 5 32 2 56 -39 36 -60 73 -89 111
-85 26 3 35 11 56 55 34 68 63 99 116 119 72 28 167 -1 204 -61 43 -70 19
-125 -87 -196 -113 -77 -263 -234 -263 -277 0 -8 -22 -48 -50 -89 -45 -68 -90
-179 -90 -224 0 -35 61 1 156 93 50 48 95 88 101 88 5 0 24 -15 42 -34 l34
-35 -113 -120 c-146 -154 -144 -151 -80 -151 57 0 78 9 201 86 47 30 95 54
105 54 10 0 58 -32 107 -71 73 -59 87 -75 87 -99 0 -54 21 -63 131 -55 89 6
102 5 144 -15 59 -28 96 -84 103 -150 6 -65 -2 -93 -39 -135 -22 -25 -48 -40
-87 -51 -62 -18 -114 -15 -242 15 -115 28 -126 19 -95 -69 47 -134 -9 -224
-139 -223 -126 1 -215 56 -275 172 -46 89 -119 164 -154 159 -52 -7 -59 -118
-16 -248 101 -308 356 -598 618 -704 68 -27 87 -31 181 -31 96 0 110 3 165 29
82 40 190 150 233 239 19 37 42 109 52 159 26 126 49 148 247 244 171 82 221
121 277 216 75 126 101 267 72 391 -27 114 -69 174 -182 263 -22 17 -52 50
-68 73 l-29 41 35 34 c19 19 38 49 42 66 16 85 -4 198 -52 278 -39 68 -155
186 -240 245 -59 41 -72 56 -68 72 3 11 10 44 17 73 6 28 16 52 21 52 6 0 41
-33 78 -73 101 -108 198 -154 259 -122 41 21 46 45 45 210 -3 265 -66 410
-284 655 -36 41 -76 89 -87 105 -28 42 -59 143 -47 155 6 6 34 5 77 -2 49 -8
78 -8 103 0 42 13 44 11 73 -117 47 -201 103 -332 156 -367 73 -48 179 10 238
131 65 130 86 318 69 607 -19 321 -14 419 27 469 23 29 63 20 81 -18 20 -43
24 -181 10 -344 -13 -162 -6 -219 30 -219 11 0 55 45 111 113 264 318 552 539
734 564 70 9 56 -11 -47 -63 -263 -136 -524 -411 -768 -809 -195 -318 -300
-594 -362 -951 -19 -111 -22 -166 -23 -404 0 -288 6 -356 51 -575 26 -132 47
-165 103 -165 37 0 53 20 45 58 -13 66 75 98 123 45 21 -24 103 -194 103 -214
0 -4 -26 -5 -57 -2 -50 4 -63 1 -93 -19 -19 -13 -44 -40 -55 -60 l-19 -36 23
-66 c32 -92 31 -160 -3 -194 -23 -23 -34 -26 -94 -27 -101 -1 -147 -40 -171
-144 -15 -69 3 -121 66 -191 100 -110 198 -171 496 -310 201 -95 265 -137 306
-204 27 -43 28 -115 2 -147 -17 -21 -20 -22 -52 -9 -52 22 -224 140 -319 220
-158 132 -262 188 -393 210 -79 14 -172 2 -242 -32 l-44 -21 -63 26 c-114 47
-185 58 -244 37 -19 -7 -55 -46 -107 -114 -110 -149 -187 -194 -367 -217 l-92
-12 79 -79 c98 -100 198 -168 291 -197 73 -24 85 -38 55 -62 -24 -20 -63 -109
-63 -144 0 -16 -4 -37 -10 -45 -26 -42 -368 260 -490 432 -37 54 -57 75 -65
67 -18 -18 -18 -192 0 -276 20 -90 73 -230 123 -328 72 -140 246 -284 399
-330 59 -18 274 -39 321 -31 29 4 38 1 56 -22 11 -14 48 -54 81 -87 71 -72
121 -91 207 -80 138 19 265 77 495 226 83 55 198 124 255 155 99 53 121 60
251 85 59 11 83 32 67 59 -6 10 -26 12 -82 7 -76 -6 -115 -16 -356 -87 -153
-45 -189 -47 -234 -10 l-23 19 23 43 c25 47 30 85 18 135 -7 29 -4 33 34 54
22 12 47 33 55 45 25 39 35 103 23 160 -9 48 -8 56 12 89 28 46 87 74 153 75
61 0 96 -15 178 -77 82 -62 145 -88 196 -80 41 7 73 37 73 68 0 11 -43 104
-97 207 -53 103 -117 226 -141 275 -40 76 -46 95 -46 150 1 145 102 210 215
138 57 -36 96 -97 153 -239 39 -97 47 -130 56 -225 10 -108 31 -177 56 -184
27 -9 64 162 71 327 9 210 -26 388 -112 568 -53 111 -89 165 -167 254 -57 65
-65 88 -32 88 29 0 160 67 223 115 61 47 64 48 98 36 19 -7 72 -13 118 -14 78
-2 86 -4 116 -32 64 -61 86 -150 48 -199 -26 -33 -32 -33 -77 3 -79 64 -181
55 -182 -15 0 -40 34 -58 108 -57 85 2 137 -12 157 -40 28 -40 14 -248 -31
-442 -53 -230 -179 -538 -307 -748 -84 -138 -111 -205 -112 -282 0 -49 5 -66
24 -93 44 -58 141 -89 193 -61 52 28 154 169 219 304 60 125 93 226 124 380
46 226 52 377 29 652 -6 61 -3 78 16 117 31 65 70 89 150 94 36 2 71 9 78 14
19 16 15 75 -8 98 -32 32 -56 24 -118 -40 -67 -69 -98 -76 -136 -35 -47 51
-40 131 16 183 13 12 62 41 109 65 74 37 84 46 87 72 5 37 -19 55 -70 55 -42
0 -78 -27 -78 -59 0 -28 -48 -81 -74 -81 -71 0 -121 122 -82 199 20 38 80 89
131 111 42 18 55 35 55 71 0 28 -36 59 -68 59 -35 0 -57 -23 -67 -70 -14 -69
-80 -104 -117 -62 -42 47 -71 127 -76 207 -3 71 -1 84 20 115 32 48 86 74 123
60 39 -15 84 -3 97 25 9 19 6 30 -12 60 -34 54 -61 68 -122 63 -70 -7 -106 5
-148 49 -19 21 -44 43 -55 50 -19 11 -17 14 34 65 62 62 117 139 166 235 38
75 43 95 20 86 -29 -11 -102 28 -251 132 -382 267 -558 295 -901 141 -118 -53
-179 -64 -236 -42 -57 22 -75 57 -56 113 17 52 129 161 204 198 53 26 70 30
145 29 78 0 102 -6 285 -68 285 -96 342 -109 439 -104 147 8 264 86 408 271
37 49 68 92 68 95 0 4 -15 16 -33 28 -17 12 -91 71 -164 132 -73 61 -156 125
-185 141 -146 84 -341 75 -588 -25 -46 -19 -99 -34 -118 -34 -40 0 -82 38 -82
74 0 60 117 157 249 207 31 12 108 32 171 46 63 14 162 35 220 48 136 30 208
57 283 109 127 87 201 212 247 416 17 72 30 135 30 138 0 12 -149 108 -225
145 -154 76 -326 111 -433 88 -90 -19 -143 -50 -229 -136 -79 -80 -84 -88
-191 -306 -62 -126 -123 -236 -139 -251 -38 -36 -75 -44 -98 -22 -27 28 -14
103 39 224 74 165 89 226 84 333 -3 78 -8 100 -33 145 -29 54 -85 112 -108
112 -30 0 -178 -99 -238 -159 -113 -113 -158 -244 -146 -420 4 -47 21 -160 39
-251 36 -185 45 -383 20 -452 -33 -92 -89 -115 -142 -58 -57 61 -79 190 -51
290 17 61 8 158 -21 214 -30 57 -168 225 -208 251 -16 11 -30 24 -30 28 0 4
17 31 39 60 64 86 77 160 42 230 -57 112 -167 214 -306 283 -139 69 -220 86
-415 89 -91 2 -181 1 -200 -1z m549 -1595 c53 -96 143 -200 269 -312 133 -117
171 -173 172 -249 0 -40 -4 -50 -31 -72 -17 -14 -40 -26 -52 -26 -34 0 -82 34
-124 88 -53 67 -263 397 -263 413 -1 25 -36 93 -74 142 -21 27 -36 50 -34 52
4 3 79 23 93 24 6 1 25 -26 44 -60z m1729 -39 c64 -39 62 -104 -5 -139 -64
-32 -117 -34 -258 -11 -156 26 -279 28 -360 7 -32 -9 -61 -14 -63 -12 -23 22
70 84 180 121 115 38 207 52 348 53 108 1 129 -2 158 -19z m-305 -710 c129
-48 134 -145 12 -201 -62 -29 -142 -24 -286 16 -160 46 -228 53 -303 31 -66
-19 -78 -16 -50 15 50 55 241 141 354 159 80 13 211 3 273 -20z m-1274 -276
c99 -44 221 -167 221 -223 0 -33 -26 -71 -47 -71 -9 0 -35 18 -58 39 -53 49
-106 77 -171 89 -36 6 -70 24 -126 67 -43 32 -78 62 -78 67 0 4 30 23 67 42
75 37 86 37 192 -10z m1093 -111 c312 -156 401 -186 548 -187 52 -1 107 2 123
7 41 11 35 -15 -12 -52 -29 -23 -49 -31 -79 -31 -55 0 -72 -25 -73 -105 0 -77
-11 -137 -25 -142 -6 -2 -33 34 -61 80 -152 248 -440 376 -698 311 -79 -20
-123 -13 -159 25 -33 34 -46 104 -26 140 21 41 85 62 177 59 81 -3 82 -3 285
-105z m-56 -357 c78 -36 120 -70 155 -124 34 -54 36 -70 9 -122 -38 -74 -91
-67 -189 25 -76 72 -140 106 -249 130 -100 23 -125 49 -76 82 78 51 249 55
350 9z m906 -266 c64 -69 108 -148 108 -195 0 -41 -25 -75 -56 -75 -32 0 -114
75 -114 105 0 18 -10 24 -57 38 -66 19 -158 84 -158 111 0 13 21 28 75 52 104
47 128 43 202 -36z"/>
<path d="M1112 4944 c-40 -28 -30 -68 34 -128 49 -47 55 -57 52 -87 -2 -25
-12 -39 -37 -56 -84 -56 -160 -12 -229 135 -37 78 -49 92 -78 92 -29 0 -54
-35 -54 -75 1 -39 19 -62 61 -76 110 -37 101 -130 -16 -169 -70 -23 -164 36
-204 130 -32 73 -73 89 -116 45 -14 -13 -25 -33 -25 -45 0 -30 44 -70 78 -70
51 0 94 -59 72 -100 -15 -28 -114 -76 -186 -91 -77 -15 -135 0 -182 47 -33 33
-34 36 -27 89 11 93 -17 130 -75 100 -62 -32 -70 -48 -70 -136 l0 -80 -57 -60
-57 -60 18 -32 c10 -18 35 -50 56 -72 56 -60 70 -86 70 -126 0 -20 6 -42 14
-48 8 -7 61 -16 118 -21 56 -5 119 -12 139 -16 84 -14 101 38 49 156 -39 88
-39 138 -2 177 76 80 179 142 235 143 35 0 79 -41 70 -67 -3 -10 -25 -38 -48
-63 -23 -25 -45 -52 -48 -61 -7 -22 19 -58 50 -70 55 -21 85 32 81 148 -2 87
20 124 96 159 58 27 70 28 115 13 50 -18 57 -42 21 -82 -73 -83 -66 -187 13
-187 43 0 57 32 57 133 0 85 1 90 29 118 26 26 36 29 90 29 86 0 269 -26 386
-54 213 -52 522 -179 697 -287 144 -88 218 -121 291 -126 53 -4 67 -2 97 19
54 37 80 83 80 142 0 65 -11 80 -108 153 -206 156 -490 251 -842 283 -96 9
-164 9 -296 -1 -169 -12 -171 -12 -217 10 -61 30 -87 72 -87 142 0 33 -6 63
-16 77 -18 26 -59 29 -92 6z"/>
<path d="M11438 4415 c-18 -31 -55 -89 -83 -131 -190 -285 -205 -344 -246
-924 -6 -91 -15 -186 -19 -212 -6 -42 -5 -48 11 -48 36 0 100 113 180 317 44
112 62 133 78 91 12 -34 -5 -100 -61 -237 -73 -179 -99 -252 -95 -264 6 -18
172 149 225 226 94 136 155 287 188 462 24 132 15 365 -19 497 -25 95 -94 259
-115 272 -6 3 -25 -18 -44 -49z"/>
<path d="M1646 4230 c-104 -12 -233 -45 -333 -85 -116 -46 -290 -149 -345
-202 -89 -87 -135 -212 -147 -400 -5 -91 -9 -105 -32 -130 -48 -52 -59 -76
-59 -129 0 -58 27 -102 81 -129 33 -18 113 -19 175 -4 82 21 115 -7 174 -141
40 -91 56 -114 96 -136 90 -49 253 47 373 221 29 41 103 180 166 308 148 303
202 367 309 367 54 0 96 -17 96 -39 0 -40 -91 -173 -251 -367 -88 -107 -168
-233 -195 -306 -22 -61 -23 -190 -1 -255 26 -75 77 -136 139 -167 57 -28 96
-32 164 -15 100 25 159 -19 254 -193 66 -120 130 -196 195 -231 33 -18 57 -22
130 -22 80 0 97 3 156 31 50 24 74 43 102 81 35 48 97 103 232 205 74 56 140
121 173 171 22 33 25 48 24 115 -2 149 -56 270 -247 552 -128 189 -160 249
-200 370 -30 92 -59 155 -75 165 -6 4 -17 -10 -26 -30 -20 -49 -7 -112 57
-272 75 -185 82 -261 33 -354 -18 -36 -69 -69 -107 -69 -39 0 -65 20 -126 95
-73 90 -100 104 -192 103 -56 0 -88 5 -121 20 -114 50 -112 153 8 380 70 133
70 140 18 181 -52 41 -131 21 -281 -70 -48 -30 -124 -73 -168 -96 -187 -100
-205 -105 -276 -82 -76 26 -129 89 -129 154 0 37 33 97 75 133 69 62 132 83
347 121 130 23 217 52 242 80 16 17 14 19 -41 34 -139 38 -326 53 -467 37z"/>
<path d="M12395 4175 c-178 -108 -339 -283 -529 -578 -102 -158 -114 -200 -59
-205 62 -6 241 108 278 177 8 14 32 46 54 71 31 35 42 42 52 33 16 -16 0 -57
-60 -148 -62 -95 -119 -149 -175 -165 -78 -22 -86 -58 -19 -86 47 -20 102 -12
129 19 11 13 49 39 85 58 101 54 198 157 253 270 68 143 80 198 81 379 0 149
-7 210 -23 210 -5 0 -35 -16 -67 -35z"/>
<path d="M10845 4101 c-83 -20 -165 -100 -190 -185 -8 -28 -33 -217 -55 -421
-53 -489 -79 -640 -156 -904 -12 -42 12 -15 84 93 133 198 244 469 292 711 30
154 34 167 45 166 6 -1 10 -64 9 -169 -1 -188 -15 -267 -99 -546 -25 -82 -43
-151 -41 -153 8 -8 112 167 167 281 108 224 148 379 156 603 5 128 2 172 -17
285 -30 181 -54 221 -145 241 -11 3 -33 1 -50 -2z"/>
<path d="M10235 4015 c-116 -261 -141 -340 -160 -506 -65 -572 -118 -849 -210
-1093 -20 -54 -34 -100 -32 -103 3 -2 34 33 70 79 151 194 271 403 347 608 21
58 42 103 47 100 4 -3 8 -32 7 -65 -1 -75 -41 -198 -140 -428 -40 -94 -71
-173 -68 -176 10 -10 120 118 178 204 67 100 95 156 135 268 126 357 95 770
-79 1066 -68 117 -64 115 -95 46z"/>
<path d="M9626 3863 c-78 -120 -184 -335 -229 -468 -20 -60 -62 -227 -93 -369
-98 -458 -168 -651 -298 -825 -14 -19 -24 -36 -21 -39 8 -8 122 88 200 169
150 156 282 388 394 694 69 186 69 187 82 179 13 -8 4 -140 -18 -259 -34 -184
-164 -495 -248 -595 -51 -61 -61 -85 -44 -106 18 -22 101 -14 157 15 41 21 82
64 82 85 0 7 14 25 31 42 84 80 179 237 228 376 50 143 65 243 64 423 0 175
-18 291 -70 452 -29 93 -131 306 -149 310 -5 2 -36 -36 -68 -84z"/>
<path d="M7283 3770 c-120 -22 -230 -85 -339 -194 -169 -171 -286 -407 -344
-695 -12 -57 -26 -113 -31 -124 -13 -23 2 -41 43 -51 31 -7 58 14 58 46 0 46
139 195 252 271 95 62 250 136 309 147 69 13 123 -2 153 -43 16 -22 21 -43 21
-94 l0 -65 -73 -69 c-87 -81 -168 -131 -437 -269 -200 -103 -245 -132 -245
-157 0 -18 6 -17 138 23 197 60 251 68 427 69 174 0 275 -15 275 -42 0 -11 5
-13 18 -8 9 4 60 13 112 21 52 7 115 20 140 29 104 37 210 132 232 209 8 28
31 60 73 101 33 34 88 94 120 135 117 144 64 4 -61 -162 -123 -165 -279 -303
-416 -368 -75 -36 -91 -50 -86 -77 9 -52 188 -74 268 -33 21 11 42 24 45 30 4
6 37 30 73 55 251 165 413 460 467 848 19 140 28 349 16 366 -8 12 -22 8 -83
-24 -109 -57 -175 -105 -253 -184 -38 -39 -72 -71 -75 -71 -4 0 -16 24 -29 54
-30 72 -89 138 -153 170 -60 30 -88 32 -170 10 -128 -33 -154 -24 -208 72 -16
29 -39 58 -49 64 -29 15 -128 20 -188 10z"/>
<path d="M9033 3491 c-43 -32 -116 -99 -163 -147 -126 -131 -192 -221 -453
-620 -147 -225 -257 -364 -367 -467 -44 -40 -80 -77 -80 -81 0 -20 168 33 280
89 167 84 344 238 475 413 33 45 67 81 76 82 20 0 39 -41 39 -86 0 -57 -34
-108 -164 -244 -125 -129 -181 -214 -174 -259 3 -20 8 -18 86 26 96 54 227
172 302 271 100 133 184 326 231 527 36 159 39 555 4 555 -8 0 -49 -26 -92
-59z"/>
<path d="M12005 3123 c-59 -8 -189 -45 -225 -63 -81 -41 -75 -72 20 -90 57
-11 151 -5 183 12 28 15 50 3 38 -20 -16 -30 -97 -59 -227 -82 -228 -41 -229
-41 -229 -74 0 -43 52 -69 125 -61 93 10 131 9 238 -5 179 -23 406 14 599 98
107 46 243 121 243 134 0 5 -33 24 -72 43 -176 81 -338 116 -530 114 -73 -1
-146 -4 -163 -6z"/>
<path d="M11095 2759 c-403 -316 -993 -587 -1540 -708 -545 -120 -1043 -121
-1544 -2 l-122 29 -51 56 c-121 136 -293 221 -508 252 -58 8 -133 26 -167 39
-66 27 -160 33 -208 15 -23 -9 -25 -13 -15 -26 8 -9 9 -18 4 -23 -5 -4 -58
-18 -119 -30 -112 -23 -312 -84 -329 -101 -18 -18 0 -19 59 -3 91 25 287 22
390 -6 98 -26 238 -94 265 -128 42 -53 15 -97 -80 -128 -26 -9 -51 -23 -54
-31 -10 -26 15 -62 75 -105 32 -23 75 -65 94 -93 91 -132 2 -266 -140 -211
-33 12 -81 52 -178 147 -138 137 -234 215 -327 266 -56 31 -167 72 -195 72
-29 0 -15 -39 27 -72 109 -85 266 -271 360 -429 58 -94 132 -244 187 -374 101
-239 242 -365 408 -365 79 0 130 18 177 62 22 21 45 37 52 34 6 -2 32 -42 57
-88 35 -64 304 -525 355 -608 6 -8 13 -12 16 -9 12 12 97 244 116 319 46 182
44 399 -7 590 -14 52 -29 136 -33 186 -9 116 -47 194 -129 263 -81 68 -151
141 -151 158 0 9 13 31 30 49 38 43 66 99 75 147 4 20 12 37 19 37 6 0 73 -16
149 -35 242 -61 390 -78 632 -72 853 22 1702 347 2338 897 94 80 115 100 105
100 -2 0 -43 -32 -93 -71z m-3137 -1802 c2 -21 -1 -37 -7 -37 -11 0 -31 60
-24 73 11 19 28 -2 31 -36z"/>
<path d="M11462 2650 c-132 -19 -322 -78 -322 -102 0 -11 71 -42 143 -63 29
-8 131 -29 227 -45 187 -32 246 -48 324 -87 83 -42 46 -46 -175 -18 -259 32
-453 41 -588 26 -58 -6 -107 -14 -110 -17 -10 -10 23 -23 99 -39 296 -64 390
-93 498 -153 351 -196 694 -231 1024 -106 38 14 70 29 73 34 8 14 -89 133
-182 220 -180 171 -389 280 -631 330 -115 23 -291 32 -380 20z"/>
<path d="M3145 2268 c-137 -70 -223 -241 -270 -536 -17 -103 -35 -374 -35
-522 0 -130 -16 -270 -35 -316 -38 -93 -138 -45 -206 100 -47 99 -62 188 -57
339 6 159 33 291 94 464 48 135 53 163 28 163 -37 0 -156 -75 -208 -131 -69
-74 -107 -142 -145 -256 -96 -284 -49 -606 124 -848 49 -69 169 -187 235 -232
75 -51 167 -93 204 -93 38 0 81 41 92 88 13 53 96 202 214 381 191 291 264
437 310 621 30 120 38 310 16 415 -31 154 -139 324 -231 366 -51 24 -80 23
-130 -3z"/>
<path d="M10898 2204 c-30 -9 -22 -57 14 -93 33 -32 92 -54 298 -111 122 -34
214 -76 251 -116 44 -46 7 -43 -146 12 -304 110 -515 161 -698 169 l-112 5
120 -59 c488 -242 889 -388 1196 -435 144 -22 179 -25 179 -15 0 22 -159 216
-252 305 -228 219 -464 331 -718 339 -63 2 -123 2 -132 -1z"/>
<path d="M5715 2074 c-22 -8 -69 -24 -105 -35 -266 -85 -504 -289 -637 -544
-39 -76 -47 -100 -51 -161 -9 -145 62 -287 189 -375 78 -55 99 -63 216 -88
154 -33 192 -63 229 -176 86 -263 306 -427 554 -412 147 8 246 60 324 169 50
70 63 80 205 158 63 35 131 80 151 100 47 47 79 137 87 246 17 236 -86 464
-339 746 -64 70 -237 229 -258 236 -17 6 -10 -82 10 -125 10 -23 36 -68 58
-100 55 -82 92 -154 92 -181 0 -37 -38 -100 -70 -117 -43 -22 -80 -19 -111 11
l-27 26 -21 -23 c-24 -26 -24 -26 -25 -169 -1 -119 -9 -139 -78 -186 -90 -63
-204 -26 -261 86 -38 73 -33 135 17 240 58 120 46 149 -41 105 -145 -72 -253
-21 -253 120 0 126 94 246 253 324 91 44 114 73 87 106 -28 34 -128 44 -195
19z"/>
<path d="M10310 1934 c0 -9 34 -34 235 -178 299 -214 366 -276 300 -276 -32 0
-72 20 -254 128 -138 81 -303 164 -383 193 -29 10 -41 10 -50 1 -26 -26 65
-150 139 -188 21 -10 78 -57 128 -103 106 -100 234 -196 365 -275 114 -69 700
-359 708 -351 11 10 -17 142 -49 229 -114 315 -403 582 -791 732 -112 43 -348
103 -348 88z"/>
<path d="M9720 1752 c91 -63 229 -172 311 -245 91 -82 250 -251 270 -289 20
-37 -14 -17 -105 60 -192 165 -392 300 -562 378 -41 19 -79 32 -84 29 -16 -10
-11 -58 9 -91 10 -17 54 -62 97 -100 152 -135 193 -176 210 -212 24 -52 96
-144 146 -187 114 -97 257 -165 493 -235 77 -23 196 -59 265 -80 68 -21 127
-37 130 -34 7 8 -65 143 -123 233 -234 359 -582 633 -966 760 -106 35 -127 38
-91 13z"/>
<path d="M8390 1673 c0 -17 63 -115 173 -273 117 -167 207 -324 193 -337 -18
-18 -39 8 -266 317 -121 165 -267 292 -314 274 -49 -19 -11 -195 72 -334 15
-25 43 -93 63 -152 92 -270 271 -503 637 -826 86 -75 200 -177 255 -226 54
-48 101 -85 105 -81 12 12 4 247 -13 357 -76 510 -390 986 -825 1246 -73 44
-80 47 -80 35z"/>
<path d="M9140 1630 c0 -5 72 -81 161 -167 88 -87 181 -185 206 -218 52 -68
97 -161 89 -182 -8 -20 -37 2 -224 171 -259 234 -364 316 -481 375 -52 27 -65
19 -56 -33 9 -46 61 -126 156 -241 124 -150 140 -173 181 -258 123 -251 306
-400 653 -529 144 -54 364 -122 371 -116 8 8 -62 181 -119 296 -115 230 -253
418 -432 590 -132 126 -241 207 -371 274 -92 47 -134 59 -134 38z"/>
</g>
</svg>
